<svg width="24" height="24" viewBox="0 0 24 24" fill="none" xmlns="http://www.w3.org/2000/svg">
<path d="M9.85911 18.0009C9.72199 18.0004 9.58643 17.9718 9.46085 17.9168C9.33527 17.8617 9.22235 17.7814 9.12911 17.6809L4.26911 12.5109C4.08744 12.3173 3.99011 12.0594 3.99855 11.7941C4.00699 11.5287 4.1205 11.2776 4.31411 11.0959C4.50772 10.9142 4.76557 10.8169 5.03093 10.8253C5.29629 10.8338 5.54744 10.9473 5.72911 11.1409L9.84911 15.5309L18.2591 6.33089C18.3445 6.22461 18.4506 6.1369 18.5711 6.07315C18.6916 6.0094 18.8238 5.97095 18.9597 5.96017C19.0956 5.94938 19.2322 5.96649 19.3612 6.01044C19.4903 6.05439 19.6089 6.12425 19.71 6.21573C19.811 6.30722 19.8923 6.41839 19.9488 6.54243C20.0053 6.66647 20.0359 6.80075 20.0386 6.93703C20.0413 7.0733 20.0162 7.2087 19.9647 7.3349C19.9132 7.4611 19.8364 7.57543 19.7391 7.67089L10.5991 17.6709C10.5068 17.7732 10.3942 17.8554 10.2686 17.9122C10.143 17.969 10.007 17.9992 9.86911 18.0009H9.85911Z" fill="currentColor"/>
</svg>
