<svg width="24" height="24" viewBox="0 0 24 24" fill="none" xmlns="http://www.w3.org/2000/svg">
<path d="M10.7998 13.2091L12.4898 12.5291L13.1998 10.7891L11.5098 11.4691L10.7998 13.2091Z" fill="currentColor"/>
<path d="M12 2C10.0222 2 8.08879 2.58649 6.4443 3.6853C4.79981 4.78412 3.51809 6.3459 2.76121 8.17317C2.00433 10.0004 1.8063 12.0111 2.19215 13.9509C2.578 15.8907 3.53041 17.6725 4.92894 19.0711C6.32746 20.4696 8.10929 21.422 10.0491 21.8079C11.9889 22.1937 13.9996 21.9957 15.8268 21.2388C17.6541 20.4819 19.2159 19.2002 20.3147 17.5557C21.4135 15.9112 22 13.9778 22 12C22 10.6868 21.7413 9.38642 21.2388 8.17317C20.7363 6.95991 19.9997 5.85752 19.0711 4.92893C18.1425 4.00035 17.0401 3.26375 15.8268 2.7612C14.6136 2.25866 13.3132 2 12 2V2ZM15.93 9.42L14.18 13.68C14.1297 13.8038 14.0551 13.9162 13.9607 14.0107C13.8662 14.1051 13.7538 14.1797 13.63 14.23L9.42 15.93C9.28665 15.9832 9.14341 16.0071 9 16C8.86699 15.9982 8.73568 15.9698 8.61376 15.9165C8.49185 15.8633 8.38178 15.7863 8.29 15.69H8.24C8.12339 15.5546 8.04519 15.3904 8.01353 15.2146C7.98188 15.0387 7.99792 14.8576 8.06 14.69L9.81 10.43C9.86029 10.3062 9.93487 10.1938 10.0293 10.0993C10.1238 10.0049 10.2362 9.93029 10.36 9.88L14.57 8.18C14.7572 8.10614 14.9624 8.09049 15.1586 8.13509C15.3549 8.17969 15.5331 8.28248 15.67 8.43C15.7985 8.55629 15.8905 8.71495 15.9363 8.88921C15.982 9.06348 15.9799 9.24687 15.93 9.42V9.42Z" fill="currentColor"/>
</svg>
