<svg width="24" height="24" viewBox="0 0 24 24" fill="none" xmlns="http://www.w3.org/2000/svg">
<path d="M19 18H5C4.44772 18 4 18.4477 4 19C4 19.5523 4.44772 20 5 20H19C19.5523 20 20 19.5523 20 19C20 18.4477 19.5523 18 19 18Z" fill="currentColor"/>
<path d="M4 17V19C4 19.5523 4.44772 20 5 20C5.55228 20 6 19.5523 6 19V17C6 16.4477 5.55228 16 5 16C4.44772 16 4 16.4477 4 17Z" fill="currentColor"/>
<path d="M18 17V19C18 19.5523 18.4477 20 19 20C19.5523 20 20 19.5523 20 19V17C20 16.4477 19.5523 16 19 16C18.4477 16 18 16.4477 18 17Z" fill="currentColor"/>
<path d="M11.9995 15C11.7921 15.0016 11.5895 14.9387 11.4195 14.82L7.41946 12C7.20387 11.8471 7.05761 11.615 7.01263 11.3545C6.96766 11.0941 7.02764 10.8264 7.17946 10.61C7.25525 10.5019 7.35171 10.4098 7.46327 10.3391C7.57483 10.2684 7.69928 10.2206 7.82945 10.1982C7.95961 10.1759 8.09291 10.1796 8.22164 10.2091C8.35037 10.2386 8.47198 10.2933 8.57946 10.37L11.9995 12.76L15.3995 10.2C15.6116 10.0409 15.8783 9.97255 16.1409 10.0101C16.4034 10.0476 16.6403 10.1878 16.7995 10.4C16.9586 10.6122 17.0269 10.8789 16.9894 11.1414C16.9519 11.404 16.8116 11.6409 16.5995 11.8L12.5995 14.8C12.4264 14.9298 12.2158 15 11.9995 15V15Z" fill="currentColor"/>
<path d="M12 13C11.7348 13 11.4804 12.8946 11.2929 12.7071C11.1054 12.5196 11 12.2652 11 12V4C11 3.73478 11.1054 3.48043 11.2929 3.29289C11.4804 3.10536 11.7348 3 12 3C12.2652 3 12.5196 3.10536 12.7071 3.29289C12.8946 3.48043 13 3.73478 13 4V12C13 12.2652 12.8946 12.5196 12.7071 12.7071C12.5196 12.8946 12.2652 13 12 13Z" fill="currentColor"/>
</svg>
