<svg width="24" height="24" viewBox="0 0 24 24" fill="none" xmlns="http://www.w3.org/2000/svg">
<path d="M19.5 20.5002H4.5C3.84661 20.5082 3.21666 20.257 2.7481 19.8015C2.27953 19.3461 2.01053 18.7235 2 18.0702V5.93019C2.01053 5.27683 2.27953 4.65427 2.7481 4.19883C3.21666 3.74338 3.84661 3.49216 4.5 3.50019H9.1C9.24771 3.50116 9.39336 3.53485 9.5265 3.59882C9.65964 3.6628 9.77695 3.75547 9.87 3.87019L12.47 7.05019H19.47C19.796 7.04222 20.1204 7.09891 20.4244 7.21697C20.7285 7.33503 21.0061 7.51213 21.2413 7.73805C21.4765 7.96396 21.6647 8.23423 21.7949 8.53324C21.9251 8.83225 21.9948 9.15409 22 9.48019V18.0702C21.9895 18.7235 21.7205 19.3461 21.2519 19.8015C20.7833 20.257 20.1534 20.5082 19.5 20.5002V20.5002Z" fill="currentColor"/>
</svg>
