<svg width="24" height="24" viewBox="0 0 24 24" fill="none" xmlns="http://www.w3.org/2000/svg">
<path d="M12.0004 20.9995C11.8688 21.0003 11.7383 20.9751 11.6165 20.9253C11.4946 20.8755 11.3838 20.8022 11.2904 20.7095L3.52036 12.9295C2.54572 11.9447 1.99902 10.6151 1.99902 9.22953C1.99902 7.84396 2.54572 6.51435 3.52036 5.52953C4.50262 4.55004 5.83319 4 7.22036 4C8.60753 4 9.9381 4.55004 10.9204 5.52953L12.0004 6.60953L13.0804 5.52953C14.0626 4.55004 15.3932 4 16.7804 4C18.1675 4 19.4981 4.55004 20.4804 5.52953C21.455 6.51435 22.0017 7.84396 22.0017 9.22953C22.0017 10.6151 21.455 11.9447 20.4804 12.9295L12.7104 20.7095C12.6169 20.8022 12.5061 20.8755 12.3843 20.9253C12.2624 20.9751 12.132 21.0003 12.0004 20.9995ZM7.22036 5.99953C6.79704 5.99761 6.37754 6.07971 5.98617 6.24106C5.5948 6.40242 5.23933 6.63982 4.94036 6.93953C4.33642 7.54665 3.9974 8.36818 3.9974 9.22453C3.9974 10.0809 4.33642 10.9024 4.94036 11.5095L12.0004 18.5795L19.0604 11.5095C19.6643 10.9024 20.0033 10.0809 20.0033 9.22453C20.0033 8.36818 19.6643 7.54665 19.0604 6.93953C18.444 6.35724 17.6283 6.03282 16.7804 6.03282C15.9325 6.03282 15.1167 6.35724 14.5004 6.93953L12.7104 8.73953C12.6174 8.83326 12.5068 8.90765 12.3849 8.95842C12.2631 9.00919 12.1324 9.03533 12.0004 9.03533C11.8683 9.03533 11.7376 9.00919 11.6158 8.95842C11.4939 8.90765 11.3833 8.83326 11.2904 8.73953L9.50036 6.93953C9.20139 6.63982 8.84592 6.40242 8.45455 6.24106C8.06318 6.07971 7.64368 5.99761 7.22036 5.99953V5.99953Z" fill="currentColor"/>
</svg>
