<svg width="24" height="24" viewBox="0 0 24 24" fill="none" xmlns="http://www.w3.org/2000/svg">
<path d="M7 6C7.26522 6 7.51957 5.89464 7.70711 5.70711C7.89464 5.51957 8 5.26522 8 5C8 4.73478 7.89464 4.48043 7.70711 4.29289C7.51957 4.10536 7.26522 4 7 4H5C4.73478 4 4.48043 4.10536 4.29289 4.29289C4.10536 4.48043 4 4.73478 4 5V19C4 19.2652 4.10536 19.5196 4.29289 19.7071C4.48043 19.8946 4.73478 20 5 20H7C7.26522 20 7.51957 19.8946 7.70711 19.7071C7.89464 19.5196 8 19.2652 8 19C8 18.7348 7.89464 18.4804 7.70711 18.2929C7.51957 18.1054 7.26522 18 7 18H6V6H7Z" fill="currentColor"/>
<path d="M20.82 11.4195L18 7.41946C17.8471 7.20387 17.615 7.05761 17.3545 7.01263C17.0941 6.96766 16.8264 7.02764 16.61 7.17946C16.5018 7.25525 16.4098 7.35171 16.3391 7.46327C16.2684 7.57483 16.2206 7.69928 16.1982 7.82945C16.1759 7.95961 16.1796 8.09291 16.2091 8.22164C16.2386 8.35037 16.2933 8.47198 16.37 8.57946L18.09 10.9995H10C9.73478 10.9995 9.48043 11.1048 9.29289 11.2924C9.10536 11.4799 9 11.7342 9 11.9995C9 12.2647 9.10536 12.519 9.29289 12.7066C9.48043 12.8941 9.73478 12.9995 10 12.9995H18L16.2 15.3995C16.1212 15.5045 16.0639 15.6241 16.0313 15.7513C15.9987 15.8785 15.9915 16.0109 16.01 16.1409C16.0286 16.2709 16.0726 16.396 16.1395 16.509C16.2064 16.622 16.2949 16.7207 16.4 16.7995C16.5731 16.9293 16.7836 16.9995 17 16.9995C17.1552 16.9995 17.3084 16.9633 17.4472 16.8939C17.5861 16.8245 17.7069 16.7237 17.8 16.5995L20.8 12.5995C20.9281 12.4303 20.999 12.2248 21.0026 12.0127C21.0062 11.8006 20.9423 11.5928 20.82 11.4195V11.4195Z" fill="currentColor"/>
</svg>
