<svg width="24" height="24" viewBox="0 0 24 24" fill="none" xmlns="http://www.w3.org/2000/svg">
<path d="M14 17H10V21H14V17Z" fill="currentColor"/>
<path d="M20.12 8.71L15.29 3.88C14.7279 3.31723 13.9654 3.0007 13.17 3H10V9H15C15.2652 9 15.5196 9.10536 15.7071 9.29289C15.8946 9.48043 16 9.73478 16 10C16 10.2652 15.8946 10.5196 15.7071 10.7071C15.5196 10.8946 15.2652 11 15 11H9C8.73478 11 8.48043 10.8946 8.29289 10.7071C8.10536 10.5196 8 10.2652 8 10V3H6C5.20435 3 4.44129 3.31607 3.87868 3.87868C3.31607 4.44129 3 5.20435 3 6V18C3 18.7956 3.31607 19.5587 3.87868 20.1213C4.44129 20.6839 5.20435 21 6 21H8V17C8 16.4696 8.21071 15.9609 8.58579 15.5858C8.96086 15.2107 9.46957 15 10 15H14C14.5304 15 15.0391 15.2107 15.4142 15.5858C15.7893 15.9609 16 16.4696 16 17V21H18C18.7956 21 19.5587 20.6839 20.1213 20.1213C20.6839 19.5587 21 18.7956 21 18V10.83C20.9993 10.0346 20.6828 9.27207 20.12 8.71V8.71Z" fill="currentColor"/>
</svg>
