<svg width="24" height="24" viewBox="0 0 24 24" fill="none" xmlns="http://www.w3.org/2000/svg">
<path d="M16.0008 6.00019C15.7356 6.00019 15.4812 6.10555 15.2937 6.29308C15.1061 6.48062 15.0008 6.73497 15.0008 7.00019V10.8202L14.8608 10.6702L9.76078 6.46019C9.45375 6.21419 9.08379 6.05938 8.69305 6.01341C8.30232 5.96744 7.90653 6.03216 7.55078 6.20019C7.25096 6.34373 6.99792 6.56925 6.82094 6.85064C6.64397 7.13203 6.5503 7.45778 6.55078 7.79019V16.2102C6.5503 16.5426 6.64397 16.8684 6.82094 17.1497C6.99792 17.4311 7.25096 17.6566 7.55078 17.8002C7.83665 17.9302 8.14675 17.9983 8.46078 18.0002C8.93409 18.0008 9.39316 17.8383 9.76078 17.5402L14.8608 13.3302L15.0008 13.1802V17.0002C15.0008 17.2654 15.1061 17.5198 15.2937 17.7073C15.4812 17.8948 15.7356 18.0002 16.0008 18.0002C16.266 18.0002 16.5204 17.8948 16.7079 17.7073C16.8954 17.5198 17.0008 17.2654 17.0008 17.0002V7.00019C17.0008 6.73497 16.8954 6.48062 16.7079 6.29308C16.5204 6.10555 16.266 6.00019 16.0008 6.00019ZM8.50078 15.9102V8.00019L13.3208 12.0002L8.50078 15.9102Z" fill="currentColor"/>
</svg>
