<svg width="24" height="24" viewBox="0 0 24 24" fill="none" xmlns="http://www.w3.org/2000/svg">
<path d="M21 5.99943H16V4.32943C15.9765 3.68924 15.7002 3.08448 15.2316 2.64772C14.7629 2.21095 14.1402 1.97782 13.5 1.99943H10.5C9.85975 1.97782 9.23706 2.21095 8.76843 2.64772C8.2998 3.08448 8.02346 3.68924 8 4.32943V5.99943H3C2.73478 5.99943 2.48043 6.10478 2.29289 6.29232C2.10536 6.47986 2 6.73421 2 6.99943C2 7.26464 2.10536 7.519 2.29289 7.70653C2.48043 7.89407 2.73478 7.99943 3 7.99943H4V18.9994C4 19.7951 4.31607 20.5581 4.87868 21.1207C5.44129 21.6834 6.20435 21.9994 7 21.9994H17C17.7956 21.9994 18.5587 21.6834 19.1213 21.1207C19.6839 20.5581 20 19.7951 20 18.9994V7.99943H21C21.2652 7.99943 21.5196 7.89407 21.7071 7.70653C21.8946 7.519 22 7.26464 22 6.99943C22 6.73421 21.8946 6.47986 21.7071 6.29232C21.5196 6.10478 21.2652 5.99943 21 5.99943ZM10 4.32943C10 4.16943 10.21 3.99943 10.5 3.99943H13.5C13.79 3.99943 14 4.16943 14 4.32943V5.99943H10V4.32943ZM18 18.9994C18 19.2646 17.8946 19.519 17.7071 19.7065C17.5196 19.8941 17.2652 19.9994 17 19.9994H7C6.73478 19.9994 6.48043 19.8941 6.29289 19.7065C6.10536 19.519 6 19.2646 6 18.9994V7.99943H18V18.9994Z" fill="currentColor"/>
</svg>
