<svg width="24" height="24" viewBox="0 0 24 24" fill="none" xmlns="http://www.w3.org/2000/svg">
<path d="M20.9998 7C21.0093 6.93032 21.0093 6.85968 20.9998 6.79C20.9911 6.73129 20.9743 6.67407 20.9498 6.62C20.9234 6.57113 20.8933 6.52433 20.8598 6.48C20.8218 6.41675 20.7746 6.35947 20.7198 6.31L20.5998 6.24C20.5421 6.19696 20.478 6.16321 20.4098 6.14H20.2098C20.1489 6.08099 20.0777 6.03356 19.9998 6H14.9998C14.7346 6 14.4802 6.10536 14.2927 6.29289C14.1052 6.48043 13.9998 6.73478 13.9998 7C13.9998 7.26522 14.1052 7.51957 14.2927 7.70711C14.4802 7.89464 14.7346 8 14.9998 8H17.8298L13.8298 12.71L9.50981 10.14C9.30519 10.0183 9.06387 9.97359 8.82923 10.0139C8.5946 10.0542 8.38205 10.177 8.22981 10.36L3.22981 16.36C3.14561 16.461 3.08217 16.5777 3.04312 16.7033C3.00408 16.8289 2.99019 16.961 3.00227 17.092C3.01435 17.2229 3.05214 17.3503 3.11349 17.4666C3.17485 17.5829 3.25855 17.6861 3.35981 17.77C3.53972 17.9191 3.76616 18.0005 3.99981 18C4.14672 18.0002 4.29188 17.9681 4.42496 17.9059C4.55804 17.8437 4.67578 17.7529 4.76981 17.64L9.21981 12.3L13.4898 14.86C13.6923 14.9801 13.9308 15.0249 14.1631 14.9865C14.3954 14.9481 14.6067 14.8289 14.7598 14.65L18.9998 9.7V12C18.9998 12.2652 19.1052 12.5196 19.2927 12.7071C19.4802 12.8946 19.7346 13 19.9998 13C20.265 13 20.5194 12.8946 20.7069 12.7071C20.8945 12.5196 20.9998 12.2652 20.9998 12V7Z" fill="currentColor"/>
</svg>
