<svg width="24" height="24" viewBox="0 0 24 24" fill="none" xmlns="http://www.w3.org/2000/svg">
<path d="M12 2C10.0222 2 8.08879 2.58649 6.4443 3.6853C4.79981 4.78412 3.51809 6.3459 2.76121 8.17317C2.00433 10.0004 1.8063 12.0111 2.19215 13.9509C2.578 15.8907 3.53041 17.6725 4.92894 19.0711C6.32746 20.4696 8.10929 21.422 10.0491 21.8079C11.9889 22.1937 13.9996 21.9957 15.8268 21.2388C17.6541 20.4819 19.2159 19.2002 20.3147 17.5557C21.4135 15.9112 22 13.9778 22 12C22 10.6868 21.7413 9.38642 21.2388 8.17317C20.7363 6.95991 19.9997 5.85752 19.0711 4.92893C18.1425 4.00035 17.0401 3.26375 15.8268 2.7612C14.6136 2.25866 13.3132 2 12 2V2ZM12 20C10.4178 20 8.87104 19.5308 7.55544 18.6518C6.23985 17.7727 5.21447 16.5233 4.60897 15.0615C4.00347 13.5997 3.84504 11.9911 4.15372 10.4393C4.4624 8.88743 5.22433 7.46197 6.34315 6.34315C7.46197 5.22433 8.88743 4.4624 10.4393 4.15372C11.9911 3.84504 13.5997 4.00346 15.0615 4.60896C16.5233 5.21447 17.7727 6.23984 18.6518 7.55544C19.5308 8.87103 20 10.4177 20 12C20 14.1217 19.1572 16.1566 17.6569 17.6569C16.1566 19.1571 14.1217 20 12 20V20Z" fill="currentColor"/>
<path d="M15.6801 8.31978C15.5432 8.17225 15.365 8.06947 15.1687 8.02487C14.9725 7.98026 14.7673 7.99592 14.5801 8.06978L10.3701 9.76978C10.2463 9.82007 10.1339 9.89465 10.0394 9.98911C9.94497 10.0836 9.87039 10.196 9.8201 10.3198L8.0701 14.5798C8.00802 14.7473 7.99197 14.9285 8.02363 15.1043C8.05529 15.2802 8.13349 15.4444 8.2501 15.5798H8.3001C8.38068 15.6951 8.48467 15.7921 8.60529 15.8645C8.72591 15.9368 8.86044 15.9829 9.0001 15.9998C9.13011 16.0014 9.25919 15.9776 9.3801 15.9298L13.5901 14.2298C13.7139 14.1795 13.8263 14.1049 13.9208 14.0104C14.0152 13.916 14.0898 13.8035 14.1401 13.6798L15.8901 9.41978C15.9689 9.2364 15.9909 9.03366 15.9535 8.83762C15.9161 8.64159 15.8209 8.46124 15.6801 8.31978V8.31978ZM10.8001 13.2098L11.5101 11.4698L13.2001 10.7898L12.4901 12.5298L10.8001 13.2098Z" fill="currentColor"/>
</svg>
