<svg width="24" height="24" viewBox="0 0 24 24" fill="none" xmlns="http://www.w3.org/2000/svg">
<path d="M16.62 6.21011C16.5165 6.12815 16.3977 6.0675 16.2707 6.03167C16.1436 5.99584 16.0107 5.98553 15.8796 6.00133C15.7485 6.01714 15.6218 6.05874 15.5069 6.12376C15.392 6.18877 15.2911 6.27589 15.21 6.38011L8.20999 15.3801L4.77999 11.2001C4.69954 11.093 4.59839 11.0032 4.48255 10.9359C4.3667 10.8687 4.23853 10.8254 4.10563 10.8086C3.97273 10.7918 3.83782 10.8019 3.70891 10.8383C3.57999 10.8747 3.4597 10.9366 3.35516 11.0204C3.25063 11.1041 3.16399 11.208 3.10039 11.3259C3.03679 11.4438 2.99752 11.5733 2.98491 11.7066C2.9723 11.84 2.98661 11.9745 3.027 12.1022C3.06738 12.2299 3.13301 12.3482 3.21999 12.4501L7.38999 17.6301C7.48411 17.7461 7.60303 17.8396 7.73801 17.9036C7.87299 17.9676 8.0206 18.0006 8.16999 18.0001C8.32857 18.0072 8.48656 17.9764 8.63088 17.9103C8.77521 17.8443 8.90174 17.7448 8.99999 17.6201L16.83 7.62011C16.9098 7.51413 16.9678 7.39333 17.0004 7.26474C17.0331 7.13616 17.0399 7.00235 17.0203 6.87112C17.0008 6.73989 16.9553 6.61386 16.8866 6.50038C16.8179 6.38689 16.7272 6.28822 16.62 6.21011V6.21011Z" fill="currentColor"/>
<path d="M21.6198 6.21011C21.5163 6.12815 21.3976 6.0675 21.2705 6.03167C21.1434 5.99584 21.0105 5.98553 20.8794 6.00133C20.7483 6.01714 20.6217 6.05874 20.5068 6.12376C20.3918 6.18877 20.2909 6.27589 20.2098 6.38011L13.2098 15.3801L12.5998 14.6301L11.3398 16.2501L12.4398 17.6201C12.534 17.7361 12.6529 17.8296 12.7879 17.8936C12.9228 17.9576 13.0704 17.9906 13.2198 17.9901C13.37 17.9894 13.5182 17.9549 13.6532 17.8891C13.7882 17.8233 13.9067 17.728 13.9998 17.6101L21.8298 7.61011C21.9081 7.50444 21.9648 7.38438 21.9966 7.25679C22.0284 7.1292 22.0347 6.99659 22.0152 6.86655C21.9957 6.73651 21.9507 6.6116 21.8829 6.49896C21.8151 6.38631 21.7257 6.28816 21.6198 6.21011V6.21011Z" fill="currentColor"/>
<path d="M8.70982 13.0599L9.99982 11.4399L9.79982 11.1999C9.72087 11.0905 9.62061 10.9982 9.50506 10.9286C9.38952 10.859 9.26109 10.8135 9.12749 10.7948C8.9939 10.7761 8.8579 10.7846 8.72769 10.8199C8.59748 10.8551 8.47575 10.9164 8.36982 10.9999C8.26709 11.0824 8.18169 11.1844 8.11852 11.3001C8.05534 11.4157 8.01564 11.5427 8.0017 11.6737C7.98777 11.8047 7.99986 11.9372 8.03729 12.0636C8.07472 12.1899 8.13675 12.3076 8.21982 12.4099L8.70982 13.0599Z" fill="currentColor"/>
</svg>
