<svg width="24" height="24" viewBox="0 0 24 24" fill="none" xmlns="http://www.w3.org/2000/svg">
<path d="M14 13H13V12C13 11.7348 12.8946 11.4804 12.7071 11.2929C12.5196 11.1054 12.2652 11 12 11C11.7348 11 11.4804 11.1054 11.2929 11.2929C11.1054 11.4804 11 11.7348 11 12V13H10C9.73478 13 9.48043 13.1054 9.29289 13.2929C9.10536 13.4804 9 13.7348 9 14C9 14.2652 9.10536 14.5196 9.29289 14.7071C9.48043 14.8946 9.73478 15 10 15H11V16C11 16.2652 11.1054 16.5196 11.2929 16.7071C11.4804 16.8946 11.7348 17 12 17C12.2652 17 12.5196 16.8946 12.7071 16.7071C12.8946 16.5196 13 16.2652 13 16V15H14C14.2652 15 14.5196 14.8946 14.7071 14.7071C14.8946 14.5196 15 14.2652 15 14C15 13.7348 14.8946 13.4804 14.7071 13.2929C14.5196 13.1054 14.2652 13 14 13Z" fill="currentColor"/>
<path d="M19.5 7.05019H12.5L9.87 3.87019C9.77695 3.75547 9.65964 3.6628 9.5265 3.59882C9.39336 3.53485 9.24771 3.50116 9.1 3.50019H4.5C3.84661 3.49216 3.21666 3.74338 2.7481 4.19883C2.27953 4.65427 2.01053 5.27683 2 5.93019V18.0702C2.01053 18.7235 2.27953 19.3461 2.7481 19.8015C3.21666 20.257 3.84661 20.5082 4.5 20.5002H19.5C20.1534 20.5082 20.7833 20.257 21.2519 19.8015C21.7205 19.3461 21.9895 18.7235 22 18.0702V9.48019C21.9895 8.82683 21.7205 8.20427 21.2519 7.74883C20.7833 7.29338 20.1534 7.04217 19.5 7.05019V7.05019ZM20 18.0502C19.9962 18.1115 19.9802 18.1715 19.9529 18.2266C19.9255 18.2817 19.8874 18.3307 19.8408 18.3708C19.7942 18.4109 19.74 18.4412 19.6815 18.46C19.6229 18.4788 19.5612 18.4856 19.5 18.4802H4.5C4.43876 18.4856 4.37706 18.4788 4.31852 18.46C4.25998 18.4412 4.20581 18.4109 4.1592 18.3708C4.11259 18.3307 4.07448 18.2817 4.04714 18.2266C4.0198 18.1715 4.00377 18.1115 4 18.0502V5.93019C4.00377 5.86882 4.0198 5.80884 4.04714 5.75378C4.07448 5.69871 4.11259 5.64969 4.1592 5.6096C4.20581 5.56952 4.25998 5.53918 4.31852 5.52039C4.37706 5.50159 4.43876 5.49473 4.5 5.50019H8.63L11.23 8.68019C11.3231 8.7949 11.4404 8.88757 11.5735 8.95155C11.7066 9.01552 11.8523 9.04921 12 9.05019H19.5C19.5612 9.04473 19.6229 9.05159 19.6815 9.07039C19.74 9.08918 19.7942 9.11952 19.8408 9.1596C19.8874 9.19969 19.9255 9.24871 19.9529 9.30378C19.9802 9.35884 19.9962 9.41882 20 9.48019V18.0502Z" fill="currentColor"/>
</svg>
