<svg width="24" height="24" viewBox="0 0 24 24" fill="none" xmlns="http://www.w3.org/2000/svg">
<path d="M16.2397 22.0004C15.9745 22.0004 15.7202 21.895 15.5326 21.7075C15.3451 21.52 15.2397 21.2656 15.2397 21.0004V18.4004C15.2708 18.1013 15.2388 17.7991 15.1458 17.5131C15.0528 17.2272 14.9008 16.9639 14.6997 16.7404C14.5752 16.6054 14.4903 16.4387 14.4543 16.2586C14.4183 16.0785 14.4326 15.8919 14.4956 15.7194C14.5586 15.5469 14.6679 15.3951 14.8116 15.2806C14.9552 15.1661 15.1275 15.0934 15.3097 15.0704C17.7497 14.7804 19.9997 14.0004 19.9997 9.77039C20.0005 8.98047 19.7674 8.208 19.3297 7.55039C18.9259 6.94502 18.7785 6.20426 18.9197 5.49039C19.0099 5.02471 19.0099 4.54607 18.9197 4.08039C18.171 4.33357 17.4659 4.70126 16.8297 5.17039C16.7095 5.25581 16.5718 5.31355 16.4265 5.33948C16.2813 5.36542 16.1322 5.3589 15.9897 5.32039C14.1851 4.81045 12.2744 4.81045 10.4697 5.32039C10.3273 5.3589 10.1782 5.36542 10.0329 5.33948C9.88772 5.31355 9.75003 5.25581 9.62975 5.17039C8.98968 4.69583 8.27718 4.32776 7.51975 4.08039C7.42465 4.54558 7.42465 5.0252 7.51975 5.49039C7.65083 6.21324 7.49671 6.95877 7.08975 7.57039C6.65401 8.23261 6.42114 9.00767 6.41975 9.80039C6.41975 13.6904 8.29975 14.7304 11.1197 15.0904C11.3043 15.1133 11.4788 15.1872 11.6236 15.3038C11.7685 15.4204 11.8779 15.575 11.9397 15.7504C11.9979 15.9206 12.0091 16.1033 11.9721 16.2792C11.9352 16.4552 11.8514 16.618 11.7297 16.7504C11.5352 16.9583 11.386 17.2043 11.2913 17.4728C11.1966 17.7413 11.1586 18.0265 11.1797 18.3104V21.0004C11.1797 21.2656 11.0744 21.52 10.8869 21.7075C10.6993 21.895 10.445 22.0004 10.1797 22.0004C9.91453 22.0004 9.66017 21.895 9.47264 21.7075C9.2851 21.52 9.17975 21.2656 9.17975 21.0004V20.4304C8.19711 20.5434 7.20178 20.4117 6.28233 20.0471C5.36288 19.6824 4.54784 19.0962 3.90975 18.3404C3.58175 17.9768 3.18823 17.6783 2.74975 17.4604C2.62236 17.4276 2.50269 17.37 2.39757 17.2909C2.29245 17.2118 2.20393 17.1128 2.13708 16.9995C2.07022 16.8862 2.02633 16.7609 2.00791 16.6306C1.9895 16.5004 1.99692 16.3678 2.02975 16.2404C2.06258 16.113 2.12017 15.9933 2.19925 15.8882C2.27833 15.7831 2.37734 15.6946 2.49063 15.6277C2.60392 15.5609 2.72926 15.517 2.85951 15.4986C2.98976 15.4801 3.12236 15.4876 3.24975 15.5204C4.019 15.8006 4.70635 16.268 5.24975 16.8804C6.24975 17.8804 7.24975 18.7604 9.14974 18.4004C9.11634 17.8635 9.19466 17.3255 9.37975 16.8204C7.31975 16.3004 4.37975 14.8204 4.37975 9.82039C4.37711 8.63602 4.72506 7.47736 5.37975 6.49039C5.50135 6.3082 5.54792 6.08609 5.50975 5.87039C5.30767 4.79097 5.42228 3.67613 5.83975 2.66039C5.89647 2.52496 5.98232 2.40367 6.0912 2.30516C6.20009 2.20665 6.32933 2.13332 6.46975 2.09039C6.80975 1.99039 8.02975 1.79039 10.3397 3.29039C12.2097 2.84039 14.1598 2.84039 16.0297 3.29039C18.3397 1.79039 19.5597 1.98039 19.8897 2.09039C20.0302 2.13332 20.1594 2.20665 20.2683 2.30516C20.3772 2.40367 20.463 2.52496 20.5197 2.66039C20.938 3.67942 21.0526 4.7977 20.8497 5.88039C20.8293 5.97794 20.8285 6.0786 20.8474 6.17647C20.8662 6.27433 20.9045 6.36746 20.9597 6.45039C21.6163 7.4402 21.9644 8.60262 21.9597 9.79039C21.9597 14.8604 19.0397 16.3304 16.9597 16.7904C17.143 17.327 17.2178 17.8946 17.1797 18.4604V21.0004C17.1802 21.2555 17.0831 21.5012 16.9084 21.6871C16.7336 21.873 16.4944 21.9851 16.2397 22.0004V22.0004Z" fill="currentColor"/>
</svg>
