<svg width="24" height="24" viewBox="0 0 24 24" fill="none" xmlns="http://www.w3.org/2000/svg">
<path d="M18.9995 14.9996V3.9996C18.9988 3.8494 18.9642 3.70128 18.8985 3.56624C18.8327 3.43121 18.7373 3.31273 18.6195 3.2196C18.5033 3.12562 18.3675 3.05887 18.2222 3.02426C18.0768 2.98965 17.9255 2.98806 17.7795 3.0196L8.77945 5.0196C8.55727 5.06971 8.35885 5.19415 8.21702 5.37236C8.07518 5.55056 7.99843 5.77184 7.99945 5.9996V14.3396C7.31678 14.0173 6.54802 13.9251 5.80849 14.0767C5.06896 14.2284 4.39853 14.6157 3.89779 15.1807C3.39705 15.7456 3.09299 16.4577 3.03123 17.2101C2.96947 17.9625 3.15334 18.7146 3.55525 19.3536C3.95716 19.9927 4.55545 20.4842 5.26035 20.7544C5.96525 21.0246 6.73877 21.0589 7.46486 20.8523C8.19094 20.6456 8.83045 20.2091 9.28744 19.6083C9.74443 19.0074 9.99426 18.2745 9.99945 17.5196C10.0098 17.3464 10.0098 17.1728 9.99945 16.9996V6.7996L16.9995 5.2496V12.3396C16.3164 12.0171 15.5472 11.925 14.8073 12.0769C14.0674 12.2289 13.3967 12.6168 12.8961 13.1825C12.3955 13.7481 12.0919 14.4609 12.0309 15.2137C11.9699 15.9666 12.1548 16.719 12.5578 17.3578C12.9609 17.9966 13.5603 18.4874 14.2661 18.7566C14.9719 19.0257 15.7459 19.0585 16.472 18.8502C17.198 18.6419 17.8369 18.2036 18.2927 17.6013C18.7484 16.9989 18.9964 16.2649 18.9995 15.5096C19.0089 15.3397 19.0089 15.1695 18.9995 14.9996V14.9996ZM6.53945 18.9996C6.25763 18.9995 5.98162 18.9195 5.74344 18.7688C5.50527 18.6182 5.31471 18.4031 5.19387 18.1485C5.07304 17.8939 5.02689 17.6102 5.06078 17.3304C5.09467 17.0507 5.20721 16.7862 5.38533 16.5678C5.56346 16.3494 5.79987 16.1861 6.06713 16.0966C6.33438 16.0072 6.62152 15.9954 6.89521 16.0626C7.16891 16.1298 7.41793 16.2732 7.61339 16.4762C7.80884 16.6793 7.94271 16.9336 7.99945 17.2096C8.00928 17.3094 8.00928 17.4098 7.99945 17.5096C7.99953 17.8996 7.84667 18.2741 7.5737 18.5527C7.30073 18.8313 6.9294 18.9917 6.53945 18.9996V18.9996ZM15.5395 16.9996C15.2547 17.0018 14.9752 16.9229 14.7336 16.7722C14.4921 16.6214 14.2984 16.405 14.1753 16.1483C14.0521 15.8916 14.0046 15.6051 14.0383 15.3223C14.0719 15.0395 14.1854 14.7722 14.3654 14.5516C14.5454 14.3309 14.7844 14.166 15.0546 14.0762C15.3249 13.9864 15.6151 13.9754 15.8913 14.0444C16.1676 14.1134 16.4185 14.2596 16.6147 14.466C16.8109 14.6723 16.9444 14.9302 16.9995 15.2096C17.0093 15.3094 17.0093 15.4098 16.9995 15.5096C16.9968 15.904 16.839 16.2814 16.5601 16.5603C16.2813 16.8392 15.9038 16.997 15.5095 16.9996H15.5395Z" fill="currentColor"/>
</svg>
