<svg width="24" height="24" viewBox="0 0 24 24" fill="none" xmlns="http://www.w3.org/2000/svg">
<g clip-path="url(#clip0)">
<path d="M16.45 6.20019C16.0943 6.03216 15.6985 5.96744 15.3077 6.01341C14.917 6.05938 14.547 6.21419 14.24 6.46019L9.14 10.6702L9 10.8202V7.00019C9 6.73497 8.89464 6.48062 8.70711 6.29308C8.51957 6.10555 8.26522 6.00019 8 6.00019C7.73478 6.00019 7.48043 6.10555 7.29289 6.29308C7.10536 6.48062 7 6.73497 7 7.00019V17.0002C7 17.2654 7.10536 17.5198 7.29289 17.7073C7.48043 17.8948 7.73478 18.0002 8 18.0002C8.26522 18.0002 8.51957 17.8948 8.70711 17.7073C8.89464 17.5198 9 17.2654 9 17.0002V13.1802L9.14 13.3302L14.24 17.5402C14.6076 17.8383 15.0667 18.0008 15.54 18.0002C15.854 17.9983 16.1641 17.9302 16.45 17.8002C16.7592 17.6639 17.0226 17.4415 17.2088 17.1596C17.395 16.8776 17.4961 16.548 17.5 16.2102V7.79019C17.4961 7.45234 17.395 7.12276 17.2088 6.84081C17.0226 6.55886 16.7592 6.33647 16.45 6.20019ZM15.5 16.0002L10.68 12.0002L15.5 8.09019V16.0002Z" fill="currentColor"/>
</g>
<defs>
<clipPath id="clip0">
<rect width="24" height="24" fill="white"/>
</clipPath>
</defs>
</svg>
