<svg width="24" height="24" viewBox="0 0 24 24" fill="none" xmlns="http://www.w3.org/2000/svg">
<path d="M19.5 20.5002H4.5C3.84661 20.5082 3.21666 20.257 2.7481 19.8015C2.27953 19.3461 2.01053 18.7235 2 18.0702V5.93019C2.01053 5.27683 2.27953 4.65427 2.7481 4.19883C3.21666 3.74338 3.84661 3.49216 4.5 3.50019H9.1C9.24771 3.50116 9.39336 3.53485 9.5265 3.59882C9.65964 3.6628 9.77695 3.75547 9.87 3.87019L12.47 7.05019H19.47C19.796 7.04222 20.1204 7.09891 20.4244 7.21697C20.7285 7.33503 21.0061 7.51213 21.2413 7.73805C21.4765 7.96396 21.6647 8.23423 21.7949 8.53324C21.9251 8.83225 21.9948 9.15409 22 9.48019V18.0702C21.9895 18.7235 21.7205 19.3461 21.2519 19.8015C20.7833 20.257 20.1534 20.5082 19.5 20.5002V20.5002ZM4 13.7602V18.0702C4.00377 18.1315 4.0198 18.1915 4.04714 18.2466C4.07448 18.3017 4.11259 18.3507 4.1592 18.3908C4.20581 18.4309 4.25998 18.4612 4.31852 18.48C4.37706 18.4988 4.43876 18.5056 4.5 18.5002H19.5C19.5612 18.5056 19.6229 18.4988 19.6815 18.48C19.74 18.4612 19.7942 18.4309 19.8408 18.3908C19.8874 18.3507 19.9255 18.3017 19.9529 18.2466C19.9802 18.1915 19.9962 18.1315 20 18.0702V9.48019C19.9962 9.41882 19.9802 9.35884 19.9529 9.30378C19.9255 9.24871 19.8874 9.19969 19.8408 9.1596C19.7942 9.11952 19.74 9.08918 19.6815 9.07039C19.6229 9.05159 19.5612 9.04473 19.5 9.05019H12C11.8523 9.04921 11.7066 9.01552 11.5735 8.95155C11.4404 8.88757 11.3231 8.7949 11.23 8.68019L8.63 5.50019H4.5C4.43876 5.49473 4.37706 5.50159 4.31852 5.52039C4.25998 5.53918 4.20581 5.56952 4.1592 5.6096C4.11259 5.64969 4.07448 5.69871 4.04714 5.75378C4.0198 5.80884 4.00377 5.86882 4 5.93019V13.7602Z" fill="currentColor"/>
</svg>
