<svg width="24" height="24" viewBox="0 0 24 24" fill="none" xmlns="http://www.w3.org/2000/svg">
<path d="M11.9994 20.9995C11.8678 21.0003 11.7373 20.9751 11.6155 20.9253C11.4936 20.8755 11.3828 20.8022 11.2894 20.7095L3.51938 12.9295C2.54475 11.9447 1.99805 10.6151 1.99805 9.22953C1.99805 7.84396 2.54475 6.51435 3.51938 5.52953C4.50165 4.55004 5.83221 4 7.21938 4C8.60655 4 9.93712 4.55004 10.9194 5.52953L11.9994 6.60953L13.0794 5.52953C14.0616 4.55004 15.3922 4 16.7794 4C18.1666 4 19.4971 4.55004 20.4794 5.52953C21.454 6.51435 22.0007 7.84396 22.0007 9.22953C22.0007 10.6151 21.454 11.9447 20.4794 12.9295L12.7094 20.7095C12.6159 20.8022 12.5051 20.8755 12.3833 20.9253C12.2615 20.9751 12.131 21.0003 11.9994 20.9995Z" fill="currentColor"/>
</svg>
