<svg width="24" height="24" viewBox="0 0 24 24" fill="none" xmlns="http://www.w3.org/2000/svg">
<path d="M11.9996 8C11.2911 7.99895 10.6051 8.24867 10.0631 8.70493C9.52112 9.16119 9.15808 9.79455 9.03831 10.4928C8.91853 11.1911 9.04975 11.9092 9.40873 12.52C9.7677 13.1309 10.3313 13.5949 10.9996 13.83C10.9948 13.8866 10.9948 13.9434 10.9996 14V20C10.9996 20.2652 11.1049 20.5196 11.2925 20.7071C11.48 20.8946 11.7344 21 11.9996 21C12.2648 21 12.5192 20.8946 12.7067 20.7071C12.8942 20.5196 12.9996 20.2652 12.9996 20V14C13.0044 13.9434 13.0044 13.8866 12.9996 13.83C13.6679 13.5949 14.2315 13.1309 14.5905 12.52C14.9494 11.9092 15.0807 11.1911 14.9609 10.4928C14.8411 9.79455 14.4781 9.16119 13.9361 8.70493C13.3941 8.24867 12.7081 7.99895 11.9996 8ZM11.9996 12C11.8018 12 11.6085 11.9414 11.444 11.8315C11.2796 11.7216 11.1514 11.5654 11.0757 11.3827C11 11.2 10.9802 10.9989 11.0188 10.8049C11.0574 10.6109 11.1526 10.4327 11.2925 10.2929C11.4323 10.153 11.6105 10.0578 11.8045 10.0192C11.9985 9.98063 12.1996 10.0004 12.3823 10.0761C12.565 10.1518 12.7212 10.28 12.8311 10.4444C12.9409 10.6089 12.9996 10.8022 12.9996 11C12.9996 11.2652 12.8942 11.5196 12.7067 11.7071C12.5192 11.8946 12.2648 12 11.9996 12Z" fill="currentColor"/>
<path d="M3.5 10.9993C3.52731 9.98684 3.77815 8.99294 4.23456 8.08878C4.69096 7.18461 5.34164 6.39255 6.14 5.7693C6.34422 5.59956 6.47264 5.35565 6.49702 5.09122C6.5214 4.8268 6.43974 4.56352 6.27 4.3593C6.18595 4.25818 6.08281 4.17461 5.96647 4.11335C5.85013 4.05209 5.72285 4.01435 5.59192 4.00228C5.3275 3.9779 5.06422 4.05956 4.86 4.2293C3.83433 5.03922 3.00101 6.06647 2.42001 7.23711C1.83901 8.40775 1.5248 9.69265 1.5 10.9993C1.5248 12.306 1.83901 13.5908 2.42001 14.7615C3.00101 15.9321 3.83433 16.9594 4.86 17.7693C4.96112 17.8533 5.0778 17.9167 5.20338 17.9556C5.32897 17.9946 5.46099 18.0084 5.59192 17.9963C5.72285 17.9842 5.85013 17.9465 5.96647 17.8852C6.08281 17.824 6.18595 17.7404 6.27 17.6393C6.35405 17.5382 6.41735 17.4215 6.4563 17.2959C6.49526 17.1703 6.50909 17.0383 6.49702 16.9074C6.48495 16.7764 6.44721 16.6492 6.38595 16.5328C6.32469 16.4165 6.24112 16.3133 6.14 16.2293C5.34164 15.606 4.69096 14.814 4.23456 13.9098C3.77815 13.0057 3.52731 12.0118 3.5 10.9993V10.9993Z" fill="currentColor"/>
<path d="M16.6399 6.23939C16.4353 6.10345 16.1879 6.04755 15.9447 6.08236C15.7016 6.11717 15.4797 6.24025 15.3215 6.42813C15.1633 6.61601 15.0798 6.85556 15.0869 7.10108C15.0939 7.3466 15.1911 7.58094 15.3599 7.75939C15.8541 8.14619 16.2571 8.63693 16.5406 9.19684C16.824 9.75675 16.9808 10.3721 16.9999 10.9994C16.9808 11.6267 16.824 12.242 16.5406 12.8019C16.2571 13.3619 15.8541 13.8526 15.3599 14.2394C15.2052 14.3717 15.0945 14.5481 15.0427 14.745C14.9909 14.9418 15.0004 15.1499 15.07 15.3412C15.1395 15.5325 15.2659 15.698 15.432 15.8157C15.5982 15.9333 15.7963 15.9974 15.9999 15.9994C16.2348 15.997 16.4614 15.9121 16.6399 15.7594C17.3614 15.1904 17.9474 14.4682 18.3556 13.645C18.7638 12.8218 18.9838 11.9181 18.9999 10.9994C18.9838 10.0807 18.7638 9.17702 18.3556 8.35379C17.9474 7.53057 17.3614 6.80835 16.6399 6.23939V6.23939Z" fill="currentColor"/>
<path d="M8.76 6.36075C8.58931 6.16067 8.34667 6.03588 8.08463 6.01342C7.82259 5.99096 7.56225 6.07263 7.36 6.24075C6.63849 6.80971 6.05245 7.53192 5.6443 8.35515C5.23614 9.17838 5.01607 10.082 5 11.0008C5.01607 11.9195 5.23614 12.8231 5.6443 13.6463C6.05245 14.4696 6.63849 15.1918 7.36 15.7607C7.56225 15.9289 7.82259 16.0105 8.08463 15.9881C8.34667 15.9656 8.58931 15.8408 8.76 15.6407C8.92812 15.4385 9.00979 15.1782 8.98733 14.9161C8.96487 14.6541 8.84008 14.4114 8.64 14.2407C8.14582 13.854 7.74275 13.3632 7.45934 12.8033C7.17593 12.2434 7.01911 11.628 7 11.0008C7.01911 10.3735 7.17593 9.7581 7.45934 9.19819C7.74275 8.63828 8.14582 8.14755 8.64 7.76075C8.84008 7.59006 8.96487 7.34742 8.98733 7.08538C9.00979 6.82334 8.92812 6.563 8.76 6.36075V6.36075Z" fill="currentColor"/>
<path d="M19.1403 4.2293C19.0392 4.14525 18.9225 4.08194 18.7969 4.04299C18.6713 4.00404 18.5393 3.9902 18.4084 4.00228C18.2774 4.01435 18.1501 4.05209 18.0338 4.11335C17.9175 4.1746 17.8143 4.25818 17.7303 4.3593C17.6462 4.46041 17.5829 4.5771 17.544 4.70268C17.505 4.82826 17.4912 4.96029 17.5033 5.09122C17.5153 5.22215 17.5531 5.34942 17.6143 5.46577C17.6756 5.58211 17.7592 5.68525 17.8603 5.7693C18.6586 6.39255 19.3093 7.18461 19.7657 8.08878C20.2221 8.99294 20.473 9.98684 20.5003 10.9993C20.473 12.0118 20.2221 13.0057 19.7657 13.9098C19.3093 14.814 18.6586 15.606 17.8603 16.2293C17.6561 16.399 17.5276 16.6429 17.5033 16.9074C17.4789 17.1718 17.5605 17.4351 17.7303 17.6393C17.9 17.8435 18.1439 17.9719 18.4084 17.9963C18.6728 18.0207 18.9361 17.939 19.1403 17.7693C20.1659 16.9594 20.9993 15.9321 21.5803 14.7615C22.1613 13.5908 22.4755 12.3059 22.5003 10.9993C22.4755 9.69264 22.1613 8.40775 21.5803 7.23711C20.9993 6.06647 20.1659 5.03921 19.1403 4.2293V4.2293Z" fill="currentColor"/>
</svg>
