<svg width="24" height="24" viewBox="0 0 24 24" fill="none" xmlns="http://www.w3.org/2000/svg">
<path d="M12 2C10.0222 2 8.08879 2.58649 6.4443 3.6853C4.79981 4.78412 3.51809 6.3459 2.76121 8.17317C2.00433 10.0004 1.8063 12.0111 2.19215 13.9509C2.578 15.8907 3.53041 17.6725 4.92894 19.0711C6.32746 20.4696 8.10929 21.422 10.0491 21.8079C11.9889 22.1937 13.9996 21.9957 15.8268 21.2388C17.6541 20.4819 19.2159 19.2002 20.3147 17.5557C21.4135 15.9112 22 13.9778 22 12C22 10.6868 21.7413 9.38642 21.2388 8.17317C20.7363 6.95991 19.9997 5.85752 19.0711 4.92893C18.1425 4.00035 17.0401 3.26375 15.8268 2.7612C14.6136 2.25866 13.3132 2 12 2V2ZM12 20C10.4178 20 8.87104 19.5308 7.55544 18.6518C6.23985 17.7727 5.21447 16.5233 4.60897 15.0615C4.00347 13.5997 3.84504 11.9911 4.15372 10.4393C4.4624 8.88743 5.22433 7.46197 6.34315 6.34315C7.46197 5.22433 8.88743 4.4624 10.4393 4.15372C11.9911 3.84504 13.5997 4.00346 15.0615 4.60896C16.5233 5.21447 17.7727 6.23984 18.6518 7.55544C19.5308 8.87103 20 10.4177 20 12C20 14.1217 19.1572 16.1566 17.6569 17.6569C16.1566 19.1571 14.1217 20 12 20V20Z" fill="currentColor"/>
<path d="M12.3402 7.44988C12.0952 7.22408 11.7892 7.07526 11.4603 7.02192C11.1314 6.96858 10.7941 7.01308 10.4902 7.14988C10.1953 7.26919 9.94261 7.47373 9.76449 7.73735C9.58636 8.00098 9.49088 8.31172 9.49023 8.62988V15.3699C9.49088 15.688 9.58636 15.9988 9.76449 16.2624C9.94261 16.526 10.1953 16.7306 10.4902 16.8499C10.707 16.9482 10.9422 16.9993 11.1802 16.9999C11.6091 16.998 12.0222 16.8377 12.3402 16.5499L16.0002 13.1799C16.1639 13.03 16.2946 12.8477 16.3841 12.6445C16.4735 12.4414 16.5197 12.2218 16.5197 11.9999C16.5197 11.7779 16.4735 11.5584 16.3841 11.3552C16.2946 11.1521 16.1639 10.9698 16.0002 10.8199L12.3402 7.44988ZM11.5002 14.5999V9.39988L14.3102 11.9999L11.5002 14.5999Z" fill="currentColor"/>
</svg>
