<svg width="24" height="24" viewBox="0 0 24 24" fill="none" xmlns="http://www.w3.org/2000/svg">
<path d="M20.3 13.4296C20.048 13.351 19.7752 13.3753 19.5411 13.4971C19.3069 13.6188 19.1304 13.8282 19.05 14.0796C18.5776 15.524 17.6566 16.7801 16.421 17.665C15.1854 18.5499 13.6997 19.0174 12.18 18.9996C10.3003 19.0209 8.48894 18.296 7.14297 16.9838C5.79701 15.6716 5.02635 13.8792 5 11.9996C5.02635 10.12 5.79701 8.32755 7.14297 7.01533C8.48894 5.70311 10.3003 4.9782 12.18 4.99957C13.8776 4.99547 15.5229 5.58638 16.83 6.66957L14.66 6.30957C14.5299 6.28817 14.3969 6.29269 14.2686 6.32287C14.1403 6.35306 14.0193 6.4083 13.9124 6.48544C13.8055 6.56257 13.715 6.66007 13.6459 6.77233C13.5768 6.88459 13.5307 7.0094 13.51 7.13957C13.4886 7.26962 13.4931 7.40262 13.5233 7.53092C13.5535 7.65922 13.6087 7.78029 13.6859 7.88716C13.763 7.99403 13.8605 8.08461 13.9728 8.15367C14.085 8.22273 14.2098 8.26891 14.34 8.28957L18.58 8.98957H18.75C18.866 8.98943 18.981 8.96913 19.09 8.92957C19.1266 8.91567 19.1605 8.89535 19.19 8.86957C19.2617 8.84291 19.3291 8.80585 19.39 8.75957L19.48 8.64957C19.48 8.59957 19.57 8.55957 19.61 8.49957C19.65 8.43957 19.61 8.39957 19.66 8.35957C19.6876 8.30133 19.711 8.24118 19.73 8.17957L20.48 4.17957C20.505 4.04825 20.5038 3.9133 20.4766 3.78242C20.4494 3.65155 20.3967 3.52731 20.3215 3.41681C20.2462 3.30631 20.15 3.21171 20.0382 3.1384C19.9264 3.06509 19.8013 3.01452 19.67 2.98957C19.5387 2.96462 19.4037 2.96578 19.2729 2.99298C19.142 3.02018 19.0177 3.0729 18.9072 3.14811C18.6841 3.30002 18.5304 3.53435 18.48 3.79957L18.21 5.24957C16.536 3.79881 14.3952 3 12.18 2.99957C9.76993 2.97824 7.44984 3.91387 5.7288 5.60115C4.00777 7.28844 3.02639 9.58955 3 11.9996C3.02639 14.4096 4.00777 16.7107 5.7288 18.398C7.44984 20.0853 9.76993 21.0209 12.18 20.9996C14.1331 21.0296 16.0443 20.4317 17.6321 19.2939C19.22 18.1562 20.4005 16.5387 21 14.6796C21.0379 14.5515 21.0498 14.4172 21.035 14.2845C21.0202 14.1518 20.9789 14.0234 20.9137 13.9069C20.8485 13.7904 20.7605 13.6881 20.6551 13.6061C20.5497 13.5242 20.429 13.4641 20.3 13.4296Z" fill="currentColor"/>
</svg>
