<svg width="24" height="24" viewBox="0 0 24 24" fill="none" xmlns="http://www.w3.org/2000/svg">
<g clip-path="url(#clip0)">
<path d="M18.71 14.2902C18.5217 14.1019 18.2663 13.9961 18 13.9961C17.7337 13.9961 17.4783 14.1019 17.29 14.2902C17.1017 14.4785 16.9959 14.7339 16.9959 15.0002C16.9959 15.2665 17.1017 15.5219 17.29 15.7102L17.58 16.0002H16C14.9391 16.0002 13.9217 15.5788 13.1716 14.8286C12.4214 14.0785 12 13.0611 12 12.0002C12 10.9393 12.4214 9.9219 13.1716 9.17176C13.9217 8.42161 14.9391 8.00019 16 8.00019H17.59L17.29 8.29019C17.1963 8.38315 17.1219 8.49375 17.0711 8.61561C17.0203 8.73747 16.9942 8.86817 16.9942 9.00019C16.9942 9.1322 17.0203 9.2629 17.0711 9.38476C17.1219 9.50662 17.1963 9.61722 17.29 9.71019C17.3834 9.80287 17.4943 9.87619 17.6161 9.92596C17.7379 9.97572 17.8684 10.0009 18 10.0002C18.1316 10.0009 18.2621 9.97572 18.3839 9.92596C18.5057 9.87619 18.6166 9.80287 18.71 9.71019L20.71 7.71019C20.8027 7.61675 20.876 7.50593 20.9258 7.38409C20.9755 7.26225 21.0008 7.13179 21 7.00019C21.0008 6.86858 20.9755 6.73812 20.9258 6.61628C20.876 6.49444 20.8027 6.38363 20.71 6.29019L18.71 4.29019C18.6168 4.19695 18.5061 4.12299 18.3842 4.07253C18.2624 4.02207 18.1319 3.99609 18 3.99609C17.7337 3.99609 17.4783 4.10188 17.29 4.29019C17.1017 4.47849 16.9959 4.73388 16.9959 5.00019C16.9959 5.26649 17.1017 5.52188 17.29 5.71019L17.58 6.00019H16C15.0093 6.00091 14.0342 6.24695 13.1617 6.71634C12.2892 7.18573 11.5465 7.86386 11 8.69019C10.4535 7.86386 9.71079 7.18573 8.83832 6.71634C7.96585 6.24695 6.99072 6.00091 6 6.00019H4C3.73478 6.00019 3.48043 6.10554 3.29289 6.29308C3.10536 6.48062 3 6.73497 3 7.00019C3 7.2654 3.10536 7.51976 3.29289 7.70729C3.48043 7.89483 3.73478 8.00019 4 8.00019H6C7.06087 8.00019 8.07828 8.42161 8.82843 9.17176C9.57857 9.9219 10 10.9393 10 12.0002C10 13.0611 9.57857 14.0785 8.82843 14.8286C8.07828 15.5788 7.06087 16.0002 6 16.0002H4C3.73478 16.0002 3.48043 16.1055 3.29289 16.2931C3.10536 16.4806 3 16.735 3 17.0002C3 17.2654 3.10536 17.5198 3.29289 17.7073C3.48043 17.8948 3.73478 18.0002 4 18.0002H6C6.99072 17.9995 7.96585 17.7534 8.83832 17.284C9.71079 16.8146 10.4535 16.1365 11 15.3102C11.5465 16.1365 12.2892 16.8146 13.1617 17.284C14.0342 17.7534 15.0093 17.9995 16 18.0002H17.59L17.29 18.2902C17.1963 18.3831 17.1219 18.4937 17.0711 18.6156C17.0203 18.7375 16.9942 18.8682 16.9942 19.0002C16.9942 19.1322 17.0203 19.2629 17.0711 19.3848C17.1219 19.5066 17.1963 19.6172 17.29 19.7102C17.3834 19.8029 17.4943 19.8762 17.6161 19.926C17.7379 19.9757 17.8684 20.0009 18 20.0002C18.1316 20.0009 18.2621 19.9757 18.3839 19.926C18.5057 19.8762 18.6166 19.8029 18.71 19.7102L20.71 17.7102C20.8027 17.6167 20.876 17.5059 20.9258 17.3841C20.9755 17.2623 21.0008 17.1318 21 17.0002C21.0008 16.8686 20.9755 16.7381 20.9258 16.6163C20.876 16.4944 20.8027 16.3836 20.71 16.2902L18.71 14.2902Z" fill="currentColor"/>
</g>
<defs>
<clipPath id="clip0">
<rect width="24" height="24" fill="white"/>
</clipPath>
</defs>
</svg>
